PathFileType	4	(X/Y/Z)	C:/Users/beibeiliu/ov580/test_trc/User3\sequence.24_training_dense_right.trc
DataRate	CameraRate	NumFrames	NumMarkers	Units	OrigDataRate	OrigDataStartFrame	OrigNumFrames
120	120	14	19	mm	120	69	275
Frame#	Time	ThumbCMC			ThumbMCP			ThumbIP			ThumbTip			IndexMCP			IndexPIP			IndexTip			MiddleMCP			MiddlePIP			MiddleTip			RingMCP			RingPIP			RingTip			PinkyMCP			PinkyPIP			PinkyTip			BackHand1			BackHand2			BackHand3	
		X0	Y0	Z0	X1	Y1	Z1	X2	Y2	Z2	X3	Y3	Z3	X4	Y4	Z4	X5	Y5	Z5	X6	Y6	Z6	X7	Y7	Z7	X8	Y8	Z8	X9	Y9	Z9	X10	Y10	Z10	X11	Y11	Z11	X12	Y12	Z12	X13	Y13	Z13	X14	Y14	Z14	X15	Y15	Z15	X16	Y16	Z16	X17	Y17	Z17	X18	Y18	Z18	
68	0.566667	163.292	16.6326	17.1328	133.803	13.0603	7.18634	103.987	13.6852	-8.47445	85.7482	10.3413	-16.7831	136.367	-21.1777	-41.6462	109.733	-25.4717	-48.602	81.9538	-25.1861	-49.3973	124.255	-40.5553	-30.3471	102.529	-32.6483	-10.9381	122.624	-16.8713	19.5582	129.403	-53.6729	-12.4702	111.446	-39.2921	7.78339	136.978	-21.3884	25.4808	133.333	-63.3841	0.358644	119.798	-48.124	15.0738	145.357	-31.8032	28.7577	186.48	-44.1341	-0.510405	202.053	-38.2846	24.5753	191.037	-12.883	0.269662	
69	0.575	165.644	10.9409	13.535	136.553	15.315	5.02947	106.865	15.9688	-11.4762	89.1485	16.0373	-15.998	129.715	-19.2458	-43.7869	104.694	-19.7465	-48.6216	78.8875	-18.5091	-48.5392	121.353	-35.8956	-29.7543	97.7248	-22.6152	-11.2681	121.036	-13.2983	20.1174	123.886	-49.5941	-10.7972	106.066	-32.5475	7.73065	133.124	-21.5963	28.3855	124.191	-57.746	1.69576	112.308	-44.4463	20.7498	137.149	-31.5478	31.7315	178.602	-51.8827	0.494253	198.924	-38.6709	26.7459	190.456	-13.0738	2.62904	
70	0.583333	170.217	9.58268	14.1427	138.684	15.4593	1.75289	111.517	22.177	-13.3699	91.8576	21.2753	-20.8114	127.232	-23.6973	-42.0811	103.133	-18.0581	-48.9107	74.3487	-11.6277	-49.242	118.347	-37.5982	-26.8693	96.5581	-16.8443	-13.4566	118.972	-7.78751	18.2101	119.328	-44.7071	-10.0687	102.387	-26.4651	8.43533	130.096	-13.8571	25.3932	117.562	-55.301	3.30445	109.611	-34.9266	21.2349	133.089	-25.4432	29.4231	171.047	-55.6199	3.10136	191.248	-46.8746	26.089	190.066	-22.7757	-0.140971	
71	0.591667	173.462	5.69486	10.6613	145.716	18.1532	-1.77956	117.081	17.739	-16.3716	95.2664	21.9104	-26.5426	130.969	-25.025	-43.0844	102.665	-20.7175	-48.2044	81.0666	-10.8507	-51.6887	116.032	-32.8865	-28.7199	97.5697	-13.5748	-13.6569	126.677	-2.34298	16.2576	115.289	-43.5655	-9.01922	103.061	-26.2349	10.5717	135.079	-14.3496	24.1883	116.309	-55.5348	7.48978	107.019	-32.435	17.5707	132.299	-25.7121	28.9285	170.857	-60.4584	6.67432	191.766	-50.2658	31.7051	190.165	-26.7633	4.12936	
72	0.6	179.733	1.60488	10.9486	149.082	12.5481	-7.13819	123.231	15.5363	-21.6625	102.069	18.3126	-30.5578	135.716	-30.9324	-42.5498	105.506	-22.7699	-52.3958	81.6651	-13.1112	-53.7145	118.34	-36.2627	-28.7521	99.8671	-14.7132	-12.6048	126.215	-2.32177	12.2561	117.473	-45.474	-10.5335	106.718	-20.1133	6.61826	136.533	-18.0817	22.9099	116.902	-55.2371	5.64628	110.721	-28.9727	16.947	138.508	-27.1817	29.9843	169.205	-63.9374	7.483	186.727	-58.4134	29.7593	189.713	-32.9115	-1.21461	
73	0.608333	181.592	-3.50138	5.18718	156.234	12.4501	-11.0711	130.033	12.8821	-25.4305	110.899	15.5032	-36.4757	139.451	-33.6631	-47.6239	115.21	-23.1765	-59.4227	91.6263	-16.0494	-62.6327	123.131	-38.5434	-32.9123	104.73	-17.116	-20.5366	128.218	-3.35136	8.83556	121.072	-47.0478	-13.8797	108.06	-23.1027	5.59448	138.971	-18.8638	19.3644	117.239	-56.5992	4.56174	110.781	-31.5476	16.7884	141.186	-27.8067	27.5181	168.837	-64.8749	4.80087	189.504	-58.9567	31.3426	193.984	-36.8075	1.04542	
74	0.616667	185.576	-6.36046	4.27453	159.451	4.09557	-15.7966	137.379	8.41518	-31.6702	117.201	9.3736	-44.2506	146.141	-37.5185	-51.331	120.97	-29.1282	-65.1888	97.8342	-23.0769	-68.0927	128.457	-41.3543	-37.0048	109.025	-19.0863	-23.656	127.831	-5.92362	5.48568	124.899	-51.1871	-17.6799	113.634	-24.0936	0.864759	138.947	-19.2128	15.6048	120.197	-58.8546	-0.0648688	115.304	-31.1879	10.5752	143.776	-29.4267	20.4567	170.078	-70.7659	4.5291	191.313	-61.5717	31.7871	195.923	-42.9926	-2.82146	
75	0.625	189.991	-8.02376	0.774698	167.236	3.33878	-18.9359	145.443	6.45479	-38.2729	126.182	7.65711	-55.9961	153.456	-41.231	-56.7314	131.518	-34.3402	-70.6264	109.506	-26.1574	-80.6798	140.2	-45.9182	-43.0473	116.386	-20.1469	-33.4864	134.261	-7.20358	1.07524	127.326	-51.9912	-23.2339	116.766	-28.6098	-11.8704	142.939	-21.4418	9.95479	126.465	-62.5274	-5.4401	116.838	-37.2284	3.13584	145.507	-31.1363	18.6222	175.858	-73.1474	3.34183	193.348	-62.6415	30.9663	203.299	-44.4348	-4.16344	
76	0.633333	195.425	-7.82498	0.923721	171.148	-0.653663	-25.9202	151.621	1.30219	-44.3539	136.533	6.3281	-61.2875	166.845	-46.1336	-57.1379	146.551	-36.9116	-77.2097	118.292	-32.6685	-87.7594	148.573	-48.6514	-48.6715	123.376	-26.157	-40.9792	135.895	-8.55946	-9.5132	140.623	-55.629	-29.2648	123.705	-30.1525	-15.6296	146.709	-22.3633	4.9343	135.242	-63.7689	-12.2094	123.771	-39.366	-5.06902	151.088	-30.2597	11.4655	185.867	-69.9389	4.59958	197.616	-66.2364	29.2588	210.08	-43.4078	1.92165	
77	0.641667	200.2	-5.25405	-0.840226	176.975	-1.09454	-23.0159	159.974	0.777319	-47.4002	144.791	3.56783	-65.2133	177.71	-43.1014	-65.0085	157.189	-38.9484	-80.3681	133.451	-36.9929	-92.1323	158.259	-50.2916	-51.2894	135.397	-27.8544	-49.2741	139.12	-11.951	-12.9814	144.768	-57.6603	-33.0957	132.55	-33.3814	-25.2014	150.452	-20.5234	-1.2567	141.186	-66.8899	-14.2158	131.104	-40.9049	-7.53968	156.16	-33.3919	10.9041	192.362	-69.5382	1.49879	201.474	-62.7738	29.6488	213.784	-42.6545	1.73358	
78	0.65	204.861	-0.781025	1.08074	183.318	4.12393	-23.5212	165.628	1.99868	-54.2706	151.816	-1.14297	-69.5488	190.167	-41.7867	-60.3429	171.557	-37.1218	-83.3048	147.703	-36.9765	-96.0352	173.118	-50.6657	-51.9752	142.826	-33.0025	-51.274	144.311	-12.0818	-18.4081	157.744	-58.5647	-35.2902	138.087	-36.5174	-25.583	156.37	-22.3805	-2.33361	150.161	-65.971	-20.2368	137.33	-44.7637	-13.3142	157.819	-29.7396	4.68862	204.087	-67.0291	1.99445	213.136	-55.9453	31.2216	221.305	-37.5085	1.88657	
79	0.658333	206.347	3.50995	0.445534	187.101	7.44509	-25.8574	171.505	4.98911	-47.4442	159.027	0.843829	-68.7551	199.363	-34.4267	-65.6014	179.658	-36.0958	-84.3822	161.215	-30.7714	-100.352	183.947	-45.5687	-54.7122	153.565	-30.9505	-55.654	150.801	-9.6012	-18.0577	173.257	-56.0544	-37.7185	147.377	-35.3321	-31.548	162.145	-20.8165	-3.83568	161.116	-66.9674	-23.2483	148.863	-43.3815	-21.1028	162.431	-28.2527	4.98545	213.63	-60.9849	3.14904	219.246	-50.6882	29.3453	227.721	-27.7851	4.63433	
80	0.666667	208.41	9.70412	3.08841	188.111	11.3584	-27.0607	173.978	10.0074	-50.7133	161.902	11.2103	-70.2351	208.186	-29.4071	-64.6698	191.619	-26.318	-85.8038	171.991	-25.9248	-102.422	191.463	-40.9283	-56.0229	160.35	-29.6978	-57.1168	153.896	-9.02288	-23.8608	183.128	-52.8244	-40.7468	156.868	-35.6772	-36.7199	164.136	-17.9289	-7.73379	175.07	-62.5319	-27.4463	155.28	-41.6321	-21.1125	169.918	-27.0255	3.01553	222.343	-52.9137	1.92437	223.351	-44.6463	30.5207	232.078	-19.4432	6.26755	
81	0.675	206.282	16.092	4.26126	187.273	16.8721	-24.0315	174.961	16.4038	-50.394	165.054	10.5629	-68.8676	216.701	-13.5829	-65.6747	200.285	-13.7689	-87.017	181.621	-15.2307	-106.745	199.109	-34.3776	-59.9332	167.03	-24.6413	-58.5453	157.43	-8.0418	-26.3762	190.766	-46.9319	-44.551	163.108	-30.9063	-39.1499	167.172	-19.0661	-7.19216	184.039	-57.6042	-31.4644	162.816	-41.1627	-24.2628	171.785	-24.2682	-1.01676	228.902	-44.0818	2.89044	228.339	-40.1425	32.6936	234.717	-13.4862	7.84573	
